<?xml version="1.0" encoding="iso-8859-1"?>
<!-- Uploaded to: SVG Repo, www.svgrepo.com, Generator: SVG Repo Mixer Tools -->
<!DOCTYPE svg PUBLIC "-//W3C//DTD SVG 1.1//EN" "http://www.w3.org/Graphics/SVG/1.1/DTD/svg11.dtd">
<svg version="1.1" id="Capa_1" xmlns="http://www.w3.org/2000/svg" xmlns:xlink="http://www.w3.org/1999/xlink" 
	 width="800px" height="800px" viewBox="0 0 363.025 363.024"
	 xml:space="preserve">
<g>
	<g>
		<path style="fill:#030303;" d="M181.512,363.024C81.43,363.024,0,281.601,0,181.513C0,81.43,81.43,0,181.512,0
			c100.089,0,181.513,81.43,181.513,181.513C363.025,281.601,281.601,363.024,181.512,363.024z M181.512,11.71
			C87.88,11.71,11.71,87.88,11.71,181.513c0,93.627,76.17,169.802,169.802,169.802c93.627,0,169.803-76.175,169.803-169.802
			C351.315,87.88,275.139,11.71,181.512,11.71z"/>
	</g>
	<g>
		<g>
			<path style="fill:#030303;" d="M138.647,252.13c-4.614,0-8.574-1.527-11.464-4.414c-7.837-7.834-4.877-23.056,6.722-34.674
				c6.979-6.977,15.656-11.139,23.215-11.139c4.614,0,8.571,1.526,11.465,4.414c7.833,7.833,4.883,23.061-6.722,34.674
				C154.884,247.967,146.207,252.13,138.647,252.13z M157.12,213.602c-4.386,0-10.247,3.03-14.93,7.714
				c-7.576,7.582-9.04,15.793-6.722,18.12c0.812,0.812,2.176,0.983,3.179,0.983c4.386,0,10.247-3.03,14.93-7.713
				c3.637-3.637,6.295-7.971,7.296-11.894c0.721-2.819,0.503-5.146-0.569-6.216C159.49,213.779,158.126,213.602,157.12,213.602z"/>
		</g>
		<g>
			<path style="fill:#030303;" d="M205.894,232.872c-4.608,0-8.571-1.533-11.459-4.415c-4.088-4.094-5.415-10.43-3.637-17.394
				c1.533-5.993,5.204-12.123,10.361-17.286c6.981-6.981,15.667-11.145,23.215-11.145c4.609,0,8.577,1.526,11.459,4.415
				c7.84,7.833,4.884,23.055-6.719,34.674C222.133,228.709,213.454,232.872,205.894,232.872z M224.375,194.344
				c-4.38,0-10.246,3.024-14.935,7.708c-3.637,3.637-6.302,7.971-7.297,11.893c-0.721,2.813-0.503,5.146,0.572,6.222
				c0.823,0.812,2.178,0.983,3.179,0.983c4.386,0,10.247-3.03,14.936-7.713c7.576-7.582,9.046-15.794,6.725-18.121
				C226.743,194.509,225.375,194.344,224.375,194.344z"/>
		</g>
		<g>
			<polygon style="fill:#030303;" points="173.004,219.126 161.294,219.126 161.294,140.263 240.253,108.036 240.225,198.363 
				228.515,198.363 228.543,125.464 173.004,148.131 			"/>
		</g>
	</g>
</g>
</svg>